:FULLY-SPECIFIED
:FORCE-ALL-JOINTS-BE-3DOF
:DEGREES
259
root 9.56153 16.5075 -0.34163 8.39269 -3.99868 -0.275019
lfemur -32.4007 7.88138 -25.2211
ltibia 36.0674 -0 0
lfoot -11.3439 5.15144 0.0112419
ltoes -1.90127 0 0
rfemur -3.24436 1.16338 18.5612
rtibia 35.6312 -0 0
rfoot 0.632592 -0.147427 0.962483
rtoes -17.8952 0 0
lowerback -6.08692 0.468867 -1.75401
upperback -2.20462 0.706649 1.88895
thorax 1.18308 0.353795 2.93889
lowerneck -19.4529 -5.25074 -13.2131
upperneck 19.0618 -6.54653 13.574
head 10.2336 -2.50485 6.13005
lclavicle 3.13086e-14 9.54166e-15 0
lhumerus -36.264 -8.81667 88.4818
lradius 21.7236 -0 0
lwrist -4.22132 0 0
lhand -9.93629 -23.1424 0.0311234
lfingers 7.12502 -0 0
lthumb 16.0423 6.17174 0.0207637
rclavicle 3.13086e-14 9.54166e-15 0
rhumerus -46.8709 8.04846 -85.6482
rradius 40.6951 -0 0
rwrist -22.2855 0 0
rhand -29.316 -22.1862 -0.00117688
rfingers 7.12502 -0 0
rthumb -2.65688 -52.1493 -0.00114329
260
root 9.57869 16.52 -0.211736 8.28094 -3.84242 -0.150122
lfemur -31.4865 7.75358 -25.3438
ltibia 35.5648 -0 0
lfoot -11.6158 5.13782 0.0117591
ltoes -2.00417 0 0
rfemur -4.36473 1.13361 18.4646
rtibia 36.0342 -0 0
rfoot -0.114826 -0.572371 1.00704
rtoes -18.1053 0 0
lowerback -6.06072 0.337049 -1.8442
upperback -2.13278 0.535951 1.89939
thorax 1.25654 0.266476 2.98707
lowerneck -19.5341 -5.2001 -13.152
upperneck 19.1931 -6.47607 13.4908
head 10.2802 -2.47408 6.10493
lclavicle 3.13086e-14 9.54166e-15 0
lhumerus -35.4692 -9.15539 88.4724
lradius 21.8708 -0 0
lwrist -3.96459 0 0
lhand -10.1509 -23.1902 0.032555
lfingers 7.12502 -0 0
lthumb 15.8356 6.13866 0.0217187
rclavicle 3.13086e-14 9.54166e-15 0
rhumerus -46.8763 8.03227 -85.5522
rradius 40.7063 -0 0
rwrist -22.3152 0 0
rhand -29.3297 -22.1579 -0.00123099
rfingers 7.12502 -0 0
rthumb -2.67009 -52.1208 -0.00119585
261
root 9.59585 16.5324 -0.081842 8.16955 -3.68591 -0.0255544
lfemur -30.5724 7.62774 -25.4686
ltibia 35.0622 -0 0
lfoot -11.8876 5.1242 0.0122117
ltoes -2.10708 0 0
rfemur -5.48504 1.10196 18.3685
rtibia 36.4373 -0 0
rfoot -0.862564 -0.997865 1.04605
rtoes -18.3153 0 0
lowerback -6.03431 0.205273 -1.93445
upperback -2.06098 0.36524 1.90961
thorax 1.32993 0.179095 3.03515
lowerneck -19.6153 -5.14938 -13.0909
upperneck 19.3243 -6.40543 13.4079
head 10.3267 -2.44328 6.07984
lclavicle 3.13086e-14 9.54166e-15 0
lhumerus -34.6736 -9.49395 88.4582
lradius 22.0181 -0 0
lwrist -3.70786 0 0
lhand -10.3654 -23.238 0.0338077
lfingers 7.12502 -0 0
lthumb 15.6289 6.10558 0.0225544
rclavicle 3.13086e-14 9.54166e-15 0
rhumerus -46.8817 8.01608 -85.4562
rradius 40.7175 -0 0
rwrist -22.3448 0 0
rhand -29.3434 -22.1296 -0.00127834
rfingers 7.12502 -0 0
rthumb -2.68331 -52.0923 -0.00124185
262
root 9.61301 16.5448 0.0480522 8.05852 -3.52917 0.0986871
lfemur -29.6582 7.50388 -25.5954
ltibia 34.5595 -0 0
lfoot -12.1595 5.11058 0.0125997
ltoes -2.20999 0 0
rfemur -6.60528 1.06844 18.2731
rtibia 36.8404 -0 0
rfoot -1.61058 -1.42384 1.0795
rtoes -18.5253 0 0
lowerback -6.00769 0.0735393 -2.02476
upperback -1.98921 0.194517 1.91962
thorax 1.40325 0.0916522 3.08311
lowerneck -19.6964 -5.09857 -13.0299
upperneck 19.4553 -6.33459 13.3251
head 10.3732 -2.41247 6.05478
lclavicle 3.13086e-14 9.54166e-15 0
lhumerus -33.8771 -9.83228 88.4393
lradius 22.1653 -0 0
lwrist -3.45113 0 0
lhand -10.58 -23.2858 0.0348814
lfingers 7.12502 -0 0
lthumb 15.4221 6.07249 0.0232708
rclavicle 3.13086e-14 9.54166e-15 0
rhumerus -46.8871 7.99991 -85.3603
rradius 40.7286 -0 0
rwrist -22.3745 0 0
rhand -29.357 -22.1013 -0.00131892
rfingers 7.12502 -0 0
rthumb -2.69652 -52.0638 -0.00128127
263
root 9.63018 16.5572 0.177946 7.94785 -3.37218 0.222604
lfemur -28.7441 7.38205 -25.7241
ltibia 34.0569 -0 0
lfoot -12.4314 5.09695 0.012923
ltoes -2.31289 0 0
rfemur -7.72545 1.03306 18.1784
rtibia 37.2434 -0 0
rfoot -2.35883 -1.85022 1.10739
rtoes -18.7353 0 0
lowerback -5.98086 -0.0581528 -2.11514
upperback -1.91747 0.0237815 1.92941
thorax 1.47649 0.00414857 3.13096
lowerneck -19.7774 -5.04767 -12.969
upperneck 19.5862 -6.26357 13.2424
head 10.4198 -2.38164 6.02974
lclavicle 3.13086e-14 9.54166e-15 0
lhumerus -33.0796 -10.1703 88.4155
lradius 22.3126 -0 0
lwrist -3.19441 0 0
lhand -10.7945 -23.3335 0.0357763
lfingers 7.12502 -0 0
lthumb 15.2154 6.03941 0.0238677
rclavicle 3.13086e-14 9.54166e-15 0
rhumerus -46.8925 7.98374 -85.2643
rradius 40.7398 -0 0
rwrist -22.4041 0 0
rhand -29.3707 -22.0729 -0.00135274
rfingers 7.12502 -0 0
rthumb -2.70973 -52.0353 -0.00131412
264
root 9.64734 16.5696 0.30784 7.83754 -3.21495 0.346197
lfemur -27.8299 7.26227 -25.8547
ltibia 33.5542 -0 0
lfoot -12.7032 5.08332 0.0131816
ltoes -2.4158 0 0
rfemur -8.84555 0.995832 18.0844
rtibia 37.6465 -0 0
rfoot -3.10728 -2.27692 1.12971
rtoes -18.9453 0 0
lowerback -5.95383 -0.189802 -2.20557
upperback -1.84576 -0.146966 1.93899
thorax 1.54966 -0.0834162 3.1787
lowerneck -19.8584 -4.99669 -12.9081
upperneck 19.717 -6.19236 13.16
head 10.4662 -2.35078 6.00473
lclavicle 3.13086e-14 9.54166e-15 0
lhumerus -32.2811 -10.508 88.3869
lradius 22.4598 -0 0
lwrist -2.93768 0 0
lhand -11.0091 -23.3813 0.0364921
lfingers 7.12502 -0 0
lthumb 15.0087 6.00632 0.0243453
rclavicle 3.13086e-14 9.54166e-15 0
rhumerus -46.898 7.96758 -85.1683
rradius 40.751 -0 0
rwrist -22.4338 0 0
rhand -29.3844 -22.0446 -0.00137979
rfingers 7.12502 -0 0
rthumb -2.72294 -52.0068 -0.00134041
